<svg width="1200" height="675" viewBox="0 0 1200 675" fill="none" xmlns="http://www.w3.org/2000/svg" role="img" aria-labelledby="title desc">
  <title id="title">GG Form Combined Demo Preview</title>
  <desc id="desc">A stylized preview of the merged GG Form editor with top bar, sidebar, cards, preview and chatbox.</desc>
  <defs>
    <linearGradient id="bg" x1="0" y1="0" x2="1200" y2="675" gradientUnits="userSpaceOnUse">
      <stop stop-color="#07111F"/>
      <stop offset="0.55" stop-color="#0F172A"/>
      <stop offset="1" stop-color="#111827"/>
    </linearGradient>
    <linearGradient id="accent" x1="140" y1="100" x2="1060" y2="560" gradientUnits="userSpaceOnUse">
      <stop stop-color="#38BDF8"/>
      <stop offset="1" stop-color="#8B5CF6"/>
    </linearGradient>
    <filter id="shadow" x="-20%" y="-20%" width="140%" height="140%">
      <feDropShadow dx="0" dy="18" stdDeviation="22" flood-color="#020617" flood-opacity="0.4"/>
    </filter>
  </defs>

  <rect width="1200" height="675" fill="url(#bg)"/>
  <circle cx="124" cy="90" r="120" fill="#38BDF8" fill-opacity="0.12"/>
  <circle cx="1058" cy="80" r="158" fill="#FBBF24" fill-opacity="0.10"/>
  <circle cx="1040" cy="600" r="180" fill="#8B5CF6" fill-opacity="0.10"/>

  <rect x="52" y="42" width="1096" height="590" rx="34" fill="#071021" fill-opacity="0.72" stroke="rgba(148,163,184,0.18)" filter="url(#shadow)"/>

  <rect x="82" y="74" width="1036" height="78" rx="22" fill="#0D172B" stroke="rgba(148,163,184,0.16)"/>
  <rect x="104" y="94" width="42" height="42" rx="15" fill="url(#accent)"/>
  <path d="M117 108H133V114H117V108ZM117 118H128V124H117V118Z" fill="white"/>
  <text x="164" y="115" fill="#F8FAFC" font-family="Inter, Segoe UI, Arial, sans-serif" font-size="21" font-weight="700">GG Form Editor</text>
  <text x="164" y="135" fill="#7DD3FC" font-family="Inter, Segoe UI, Arial, sans-serif" font-size="11" letter-spacing="2.6">COMBINED FRAME</text>

  <rect x="430" y="92" width="280" height="46" rx="16" fill="rgba(255,255,255,0.05)" stroke="rgba(148,163,184,0.16)"/>
  <text x="450" y="119" fill="#B7C0D8" font-family="Inter, Segoe UI, Arial, sans-serif" font-size="13">Design Sprint Feedback</text>
  <rect x="734" y="94" width="116" height="40" rx="18" fill="rgba(255,255,255,0.05)" stroke="rgba(148,163,184,0.16)"/>
  <text x="765" y="120" fill="#E2E8F0" font-family="Inter, Segoe UI, Arial, sans-serif" font-size="14" font-weight="600">Preview</text>
  <rect x="860" y="94" width="98" height="40" rx="18" fill="rgba(255,255,255,0.05)" stroke="rgba(148,163,184,0.16)"/>
  <text x="885" y="120" fill="#E2E8F0" font-family="Inter, Segoe UI, Arial, sans-serif" font-size="14" font-weight="600">Share</text>
  <rect x="970" y="94" width="122" height="40" rx="18" fill="url(#accent)"/>
  <text x="1002" y="120" fill="white" font-family="Inter, Segoe UI, Arial, sans-serif" font-size="14" font-weight="700">Saved</text>

  <rect x="82" y="176" width="260" height="422" rx="28" fill="#0C1528" stroke="rgba(148,163,184,0.16)"/>
  <text x="112" y="216" fill="#7DD3FC" font-family="Inter, Segoe UI, Arial, sans-serif" font-size="12" font-weight="700" letter-spacing="2.2">SIDEBAR</text>
  <text x="112" y="247" fill="#F8FAFC" font-family="Inter, Segoe UI, Arial, sans-serif" font-size="26" font-weight="800">Quick add</text>
  <rect x="112" y="270" width="200" height="38" rx="14" fill="#121E38"/>
  <rect x="112" y="318" width="200" height="38" rx="14" fill="#121E38"/>
  <rect x="112" y="366" width="200" height="38" rx="14" fill="#121E38"/>
  <rect x="112" y="414" width="200" height="38" rx="14" fill="#121E38"/>
  <rect x="112" y="482" width="200" height="92" rx="18" fill="#111C33"/>
  <text x="132" y="508" fill="#F8FAFC" font-family="Inter, Segoe UI, Arial, sans-serif" font-size="16" font-weight="700">Theme picker</text>
  <rect x="132" y="520" width="150" height="14" rx="7" fill="url(#accent)"/>

  <rect x="360" y="176" width="470" height="422" rx="28" fill="#0C1528" stroke="rgba(148,163,184,0.16)"/>
  <text x="392" y="216" fill="#7DD3FC" font-family="Inter, Segoe UI, Arial, sans-serif" font-size="12" font-weight="700" letter-spacing="2.2">FORM HEADER</text>
  <text x="392" y="252" fill="#F8FAFC" font-family="Inter, Segoe UI, Arial, sans-serif" font-size="33" font-weight="800">Design Sprint Feedback</text>
  <rect x="392" y="274" width="406" height="52" rx="18" fill="#111C33"/>
  <rect x="392" y="340" width="406" height="86" rx="22" fill="#111C33"/>
  <text x="416" y="373" fill="#F8FAFC" font-family="Inter, Segoe UI, Arial, sans-serif" font-size="18" font-weight="700">Question card 01</text>
  <text x="416" y="396" fill="#B7C0D8" font-family="Inter, Segoe UI, Arial, sans-serif" font-size="14">Short answer input with selected state.</text>
  <rect x="392" y="442" width="406" height="70" rx="22" fill="#111C33"/>
  <rect x="392" y="526" width="406" height="48" rx="18" fill="url(#accent)" fill-opacity="0.18"/>

  <rect x="854" y="176" width="264" height="228" rx="28" fill="#0C1528" stroke="rgba(148,163,184,0.16)"/>
  <text x="884" y="216" fill="#7DD3FC" font-family="Inter, Segoe UI, Arial, sans-serif" font-size="12" font-weight="700" letter-spacing="2.2">LIVE PREVIEW</text>
  <rect x="884" y="234" width="202" height="142" rx="20" fill="#111C33"/>
  <rect x="906" y="254" width="156" height="14" rx="7" fill="#22304f"/>
  <rect x="906" y="278" width="128" height="14" rx="7" fill="#22304f"/>
  <rect x="906" y="302" width="174" height="36" rx="14" fill="rgba(56,189,248,0.18)"/>

  <rect x="854" y="420" width="264" height="178" rx="28" fill="#0C1528" stroke="rgba(148,163,184,0.16)"/>
  <text x="884" y="460" fill="#7DD3FC" font-family="Inter, Segoe UI, Arial, sans-serif" font-size="12" font-weight="700" letter-spacing="2.2">AI CHATBOX</text>
  <rect x="884" y="474" width="202" height="34" rx="16" fill="#111C33"/>
  <rect x="884" y="518" width="92" height="34" rx="17" fill="rgba(56,189,248,0.18)"/>
  <rect x="984" y="518" width="102" height="34" rx="17" fill="#111C33"/>

  <rect x="82" y="614" width="1036" height="1" fill="rgba(148,163,184,0.18)"/>
  <text x="82" y="648" fill="#94A3B8" font-family="Inter, Segoe UI, Arial, sans-serif" font-size="14">Individual_Tasks combined demo preview</text>
  <text x="975" y="648" fill="#94A3B8" font-family="Inter, Segoe UI, Arial, sans-serif" font-size="14">Ready for GitHub</text>
</svg>
